<svg width="60" height="61" viewBox="0 0 60 61" fill="none" xmlns="http://www.w3.org/2000/svg">
<path d="M37.5165 8.6402C42.1207 7.64343 47.8328 7.69325 55.6058 9.6317C56.9453 9.96573 57.7595 11.3198 57.4248 12.656C57.09 13.9923 55.7327 14.8048 54.3932 14.4707C47.1665 12.6686 42.2537 12.7187 38.577 13.5147C34.8887 14.3131 32.2375 15.8967 29.4287 17.6091L29.2185 17.7374C26.511 19.3891 23.5129 21.2182 19.5518 21.8767C15.4433 22.5597 10.59 21.9559 4.07207 19.3547C2.79017 18.8431 2.16668 17.3917 2.6795 16.1128C3.1923 14.834 4.64722 14.212 5.92912 14.7236C11.9109 17.1108 15.8074 17.4425 18.73 16.9566C21.6972 16.4634 23.9593 15.0979 26.8215 13.353C29.6375 11.6361 32.9235 9.6345 37.5165 8.6402Z" fill="#979797"/>
<path d="M55.6058 19.6076C47.8328 17.6692 42.1207 17.6193 37.5165 18.6161C32.9235 19.6104 29.6375 21.612 26.8215 23.3289C23.9593 25.0738 21.6972 26.4393 18.73 26.9325C15.8074 27.4183 11.9109 27.0865 5.92912 24.6995C4.64722 24.1879 3.1923 24.8099 2.6795 26.0888C2.16668 27.3675 2.79017 28.819 4.07207 29.3305C10.59 31.9318 15.4433 32.5355 19.5518 31.8525C23.5129 31.194 26.511 29.365 29.2185 27.7133L29.4287 27.585C32.2375 25.8725 34.8887 24.289 38.577 23.4906C42.2537 22.6946 47.1665 22.6445 54.3932 24.4466C55.7327 24.7806 57.09 23.9682 57.4248 22.6319C57.7595 21.2957 56.9453 19.9416 55.6058 19.6076Z" fill="#979797"/>
<path fill-rule="evenodd" clip-rule="evenodd" d="M47.4995 25.5665C46.6315 25.5665 45.9083 26.0148 45.4035 26.693C45.2263 26.9325 44.8165 27.493 44.2723 28.2775C43.5483 29.3208 42.5793 30.7705 41.606 32.3888C40.6375 33.999 39.6383 35.82 38.8738 37.5993C38.1418 39.3033 37.4973 41.1535 37.4998 43.0293C37.5015 43.5558 37.5645 44.0848 37.651 44.603C37.7955 45.468 38.089 46.659 38.701 47.8803C39.318 49.1115 40.2828 50.4185 41.7768 51.412C43.2865 52.416 45.187 53 47.4995 53C49.812 53 51.7125 52.416 53.222 51.412C54.716 50.4185 55.681 49.1115 56.298 47.8805C56.91 46.659 57.2038 45.468 57.3483 44.6033C57.435 44.0843 57.4988 43.5538 57.4995 43.0268C57.5003 41.151 56.8575 39.3035 56.1253 37.5993C55.361 35.82 54.3618 33.999 53.3933 32.3888C52.42 30.7705 51.4508 29.3208 50.7268 28.2775C50.1825 27.493 49.7725 26.9325 49.5955 26.693C49.0908 26.0148 48.3673 25.5665 47.4995 25.5665ZM51.5298 39.5643C50.888 38.0703 50.0123 36.462 49.1058 34.955C48.5545 34.0385 48.0018 33.1755 47.4995 32.4185C46.9973 33.1755 46.4445 34.0385 45.8933 34.955C44.987 36.462 44.1113 38.0703 43.4695 39.5643L43.433 39.6488C42.9913 40.676 42.4693 41.8905 42.5003 43.0253C42.5303 43.9228 42.772 44.8493 43.1733 45.6498C43.4935 46.2893 43.935 46.8528 44.5503 47.262C45.15 47.6608 46.062 48.012 47.4995 48.012C48.937 48.012 49.849 47.6608 50.4488 47.262C51.064 46.8528 51.5055 46.289 51.826 45.6498C52.2273 44.8493 52.469 43.9228 52.499 43.025C52.5303 41.8908 52.008 40.6763 51.5663 39.6493L51.5298 39.5643Z" fill="#979797"/>
<path d="M35.324 29.327C37.2247 28.7117 38.682 30.69 37.7882 32.473C37.38 33.2877 36.9207 33.981 36.0077 34.3035C33.565 35.1665 31.5415 36.3817 29.4287 37.6697L29.2185 37.798C26.511 39.4497 23.5129 41.2787 19.5518 41.9372C15.4433 42.6202 10.5901 42.0165 4.07207 39.4152C2.79017 38.9037 2.16669 37.4522 2.67949 36.1735C3.19232 34.8945 4.64722 34.2725 5.92914 34.7842C11.9109 37.1712 15.8074 37.503 18.73 37.0172C21.6972 36.524 23.9593 35.1585 26.8215 33.4135C29.5415 31.7552 32.3407 30.2927 35.324 29.327Z" fill="#979797"/>
</svg>
